<?xml version="1.0" encoding="UTF-8"?>
<svg version="1.1" viewBox="0 0 2048 2048" width="1280" height="1280" xmlns="http://www.w3.org/2000/svg">
<path transform="translate(1e3 287)" d="m0 0h50l40 3 38 5 39 8 32 9 27 9 28 11 26 12 22 11 24 14 19 12 17 12 16 12 14 11 14 12 12 11 10 9 20 20 7 8 9 10 9 11 13 16 13 18 13 19 12 19 11 19 11 20 11 23 12 28 11 30 9 29 9 36 6 31 5 36 2 25 1 21v30l-2 36-5 40-7 36-9 34-12 36-9 22-10 23-10 19-9 16-6 11-14 22-12 17-8 11-11 14-12 14-7 8-9 10-5 6h-2l-2 4-8 8-1 2h-2l-2 4-10 11-11 14-10 13-16 24-8 13-12 22-11 23-10 26-9 29-7 31-4 26-3 36 3 3 16 8 9 6 10 9 9 10 10 16 5 11 4 15 2 14v11l-2 18-5 16-8 17-12 16-8 8-14 10-16 8-18 6 5 24v26l-4 17-5 13-9 16-12 14h-2v2l-14 10-16 8-18 5-8 1-54 1-8 24-8 16-6 10-10 14-6 7h-2v2h-2v2l-8 7-13 10-17 10-20 8-21 5-13 2h-43l-22-4-17-5-15-7-13-7-16-12-12-11-8-9-10-14-7-12-8-20-4-15v-2h-55l-17-3-16-6-13-8-10-8-9-9-9-13-8-16-4-14-2-14v-16l3-19 2-7-18-6-17-9-13-11-7-7-10-14-7-14-5-16-2-12v-19l3-16 4-12 6-12 10-14 12-13 15-11 21-11-3-38-4-28-6-29-8-28-9-24-11-25-10-19-12-20-14-20-11-14-13-15-7-8-11-11-7-8-12-12-7-8-12-14-12-15-14-19-20-30-9-15-10-18-12-23-14-32-10-27-9-28-9-36-5-26-5-36-3-40v-43l3-40 5-36 7-36 9-34 12-36 8-21 9-21 12-25 13-25 14-23 16-24 10-14 9-12 13-16 9-11 9-9 7-8 6-7h2v-2h2v-2h2v-2h2v-2l8-7 16-15 11-9 12-10 16-12 17-12 17-11 20-12 24-13 25-12 19-8 29-11 29-9 36-9 38-7 32-4zm16 63-40 2-36 4-28 5-30 7-24 7-34 12-30 13-38 20-19 12-15 10-14 10-9 7-16 13-10 9-8 7-6 5-5 5v2l-4 2v2l-4 2-7 8-8 8-9 11-12 14-11 15-13 18-12 19-9 15-14 26-15 32-10 26-11 33-10 40-5 28-3 21-3 34v50l4 42 6 35 9 36 12 36 12 29 13 27 10 18 14 23 14 20 13 17 9 11 12 14 12 13 16 16 2 3h2l2 4 11 11 9 11 11 13 9 12 14 20 12 20 12 22 11 23 12 31 9 29 7 30 6 36 3 33 1 18h207v-297l-29-1-11-4-5-4-6-8-4-12-7-52-3-19-28-12-12-5-6 1-10 8-11 8-14 10-19 14-11 6-4 1h-11l-10-4-12-11-73-73-4-8-1-3v-9l4-12 10-14 28-38 7-10-2-5-9-21-6-16-2-2-59-8-16-3-14-7-2-4-5-8-2-9v-113l3-10 6-8 8-6 6-3 26-4 46-6 5-2 11-27 6-13-2-6-10-13-13-18-15-20-8-14-1-4v-8l4-12 12-13 72-72 8-4 4-1h9l10 3 12 8 20 15 15 11 17 12 5-2 17-8 21-8 1-2 9-69 5-13 8-9 9-5 6-1h104l16 1 8 4 6 5 6 10 2 5 5 36 5 37 5 3 26 11 11 5 5-2 19-14 20-15 18-13 8-4 5-1h7l10 3 8 6 10 9 22 22 5 6 7 6 5 6 7 6 5 6 7 6 5 5 4 5h2l2 4 4 5 3 8v8l-3 10-7 11-10 14-12 16-13 18-4 5 1 4 9 20 7 19 3 2 68 9 12 4 9 7 6 10 1 3v123l-5 10-5 5-5 4-11 4-57 8-15 2-5 12-11 25-2 4 1 5 42 57 5 10 1 5v7l-4 10-6 8-20 20-8 7-18 18-3 2v2l-4 2-17 17-4 3v2l-4 2-6 5-7 3h-15l-14-7-10-8-18-13-16-12-11-8-9 3-36 15-6 46-4 28-6 12-7 7-8 4-4 1-26 1-1 23v274l2 1 205-1 4-44 5-32 6-27 7-25 9-26 13-30 8-17 13-23 8-13 8-12 13-19 12-15 9-11 1-3h2l7-8 9-10v-2h2l7-8 15-16 7-8 13-16 10-13 12-17 11-17 9-15 10-18 15-31 10-25 7-20 9-30 6-26 6-36 3-31 1-20v-32l-2-33-4-32-7-36-7-28-10-32-10-26-12-27-15-30-16-27-14-21-10-14-11-14-8-10-10-11-7-8-12-13-13-13-8-7-11-10-11-9-18-14-20-14-21-13-21-12-30-15-32-13-33-11-27-7-29-6-27-4-32-3-29-1zm-28 203-4 27-6 41-2 7-6 8-10 5-29 10-20 9-21 11-11 3-16-4-11-7-18-14-13-10-15-11-4 1-5 5v2h-2l-7 8-19 19 2 5 29 38 11 15 3 7 1 3v9l-4 11-12 22-8 19-9 26-6 9-7 6-10 4-64 10-2 2v50l28 6 42 8 10 4 6 7 6 16 9 25 13 27 9 15 1 6-2 10-4 9-7 11-12 15-9 12-11 14v3l14 12 15 13 11 9 3 1 47-36 10-7 7-3h12l10 4 18 10 24 10 26 9 10 7 6 9 3 9 9 61 1 2h51l2-9 8-56 4-13 9-8 13-5 23-8 26-12 15-8 4-1h12l10 3 11 7 18 14 17 13 11 8 4-2 33-33-1-4-29-44-9-13-4-9v-10l3-9 13-24 9-23 8-23 6-9 9-7 9-3 49-7 13-2 2-1v-55l-26-4-42-6-9-3-3-3h-2l-7-14-9-26-11-25-9-17-2-5v-11l4-13 14-25 13-23 2-5-7-8-28-28-4 1-12 9-13 10-9 7-20 15-10 4h-10l-11-4-17-10-24-10-26-9-9-6-6-8-4-10-6-39-3-24-1-1zm-239 1070-11 2-11 7-7 7-6 11-2 9v8l3 11 6 10 7 7 11 6 10 2h542l10-2 10-5 10-9 6-12 1-4v-16l-4-11-7-9-7-6-12-5-6-1zm69 143-10 3-9 7-6 9-3 9v13l4 11 6 9 9 6 9 3h408l9-3 9-6 6-8 4-11v-10l-2-9-5-10-7-7-10-5-4-1zm117 133-2 2 7 14 9 12 8 8 14 9 8 4 13 4 13 2h30l13-2 12-4 15-8 10-8 10-10 10-15 3-8z"/>
<path transform="translate(1014,688)" d="m0 0h20l19 2 23 5 20 7 16 8 14 8 12 9 13 11 10 10 11 14 7 10 9 16 7 15 8 26 4 23 1 23-1 17-4 22-4 14-7 19-10 19-11 16-9 11-11 12-11 9-10 8-18 11-21 10-26 8-24 4h-36l-23-4-21-6-21-9-14-8-13-9-13-11-18-18-13-18-9-16-8-17-6-20-5-25-1-14v-17l2-19 4-20 8-24 8-17 12-19 13-16 7-8 8-7 18-14 19-11 15-7 21-7 20-4zm-7 67-20 4-16 6-15 8-13 10-4 3v2l-3 1-7 8-9 13-8 16-5 15-3 15-1 18 2 20 5 18 5 12 7 13 9 12 10 11 14 11 15 9 17 7 17 4 9 1h23l18-3 18-6 19-10 11-8 10-9 9-10 9-14 7-15 4-13 3-16v-26l-4-20-6-17-8-15-9-12-11-12-14-11-16-9-14-6-16-4-7-1z"/>
<path transform="translate(1477,156)" d="m0 0 11 1 12 6 8 9 4 8 1 12-2 8-7 14-8 13-16 28-16 27-15 26-7 11-7 8-10 5-8 2-10-1-12-6-8-9-4-8-1-5v-9l5-13 13-22 10-17 11-19 14-24 10-17 8-13 7-8 9-5z"/>
<path transform="translate(1645,1289)" d="m0 0h12l10 4 27 16 14 8 24 14 26 15 20 12 10 9 5 8 2 5v14l-4 9-9 10-7 4-5 2h-16l-16-8-28-17-18-10-27-16-21-12-11-7-8-7-6-11-1-3v-12l4-10 7-9 10-6z"/>
<path transform="translate(368,1248)" d="m0 0h12l9 4 8 7 6 12 1 5v11l-4 11-4 6-11 8-26 15-27 16-21 12-27 16-10 5-8 2h-11l-10-3-9-7-5-8-2-7v-12l3-10 7-9 10-7 26-15 77-45 12-6z"/>
<path transform="translate(279,442)" d="m0 0h12l10 4 27 15 13 8 26 15 24 14 22 13 7 7 6 10 2 8v13l-3 8-8 9-10 5-4 1h-13l-12-5-15-9-48-28-29-17-17-10-10-9-6-12-1-10 3-10 6-9 8-7z"/>
<path transform="translate(1786,483)" d="m0 0 13 2 10 6 6 7 4 10v12l-3 10-7 9-8 6-52 30-22 13-24 14-14 8-6 2-11 1-10-3-6-4-5-5-4-5-3-9v-12l4-12 9-10 27-16 26-15 17-10 29-17 14-8 8-3z"/>
<path transform="translate(604,136)" d="m0 0h13l9 3 6 4 9 10 15 26 28 48 17 29 6 12 1 5v12l-4 11-6 8-12 6-4 1h-10l-10-3-6-4-7-7-13-22-15-26-16-27-15-26-8-14-2-7v-15l5-12 7-7 8-4z"/>
<path transform="translate(154,874)" d="m0 0h132l11 2 8 4 7 7 4 9 1 4v11l-4 11-8 9-10 5-4 1-37 1h-83l-24-1-10-4-6-5-5-8-2-6v-16l4-10 7-8 10-5z"/>
<path transform="translate(1757,924)" d="m0 0h139l8 2 9 5 7 8 4 10v15l-6 12-8 7-7 3-6 1h-141l-11-4-8-7-5-10-1-3v-14l4-11 7-8 10-5z"/>
<path transform="translate(1049,30)" d="m0 0 12 2 10 6 6 8 3 9v144l-4 11-7 8-8 4-3 1h-18l-10-5-7-7-5-10-1-4v-141l4-11 7-8 8-5z"/>
</svg>
