<svg version="1.1" xmlns="http://www.w3.org/2000/svg" xmlns:xlink="http://www.w3.org/1999/xlink" x="0px" y="0px" width="520px" height="520px" viewBox="0 0 520 520" style="enable-background:new 0 0 520 520;" xml:space="preserve">
<g id="_x36_52-Award_x2C__Pupil_x2C__Recognition_x2C__School">
	<g>
		<path d="M260,120c-49.626,0-90,40.374-90,90s40.374,90,90,90s90-40.374,90-90S309.626,120,260,120z M260,280
			c-38.598,0-70-31.402-70-70s31.402-70,70-70c38.598,0,70,31.402,70,70S298.598,280,260,280z"></path>
		<path d="M384.363,271.89c0-6.679,2.627-12.991,7.397-17.775c24.335-24.403,24.339-63.821,0.001-88.229
			c-4.771-4.784-7.397-11.097-7.398-17.776c-0.002-34.53-27.938-62.469-62.472-62.472c-6.679,0-12.991-2.628-17.775-7.397
			c-24.403-24.334-63.823-24.339-88.231-0.001c-4.784,4.771-11.097,7.397-17.776,7.398c-34.531,0.004-62.469,27.936-62.472,62.472
			c0,6.68-2.628,12.993-7.398,17.776c-24.333,24.404-24.338,63.82,0,88.23c4.771,4.784,7.397,11.097,7.398,17.776
			c0.003,28.006,18.229,51.045,42.5,59.208l-27.902,126.751c-1.723,7.827,6.033,14.411,13.48,11.435L260,430.771l96.286,38.515
			c7.429,2.972,15.205-3.598,13.48-11.435l-27.902-126.752c9.015-3.031,17.28-8.112,24.201-15.033
			C377.862,304.268,384.361,288.579,384.363,271.89z M346.172,443.698L270,413.229V390c0-5.522-4.478-10-10-10
			c-5.523,0-10,4.478-10,10v23.229l-76.172,30.469l24.069-109.339c7.142,0,13.346,2.772,17.988,7.402
			c24.405,24.334,63.82,24.337,88.23,0c4.655-4.643,10.865-7.403,17.987-7.403L346.172,443.698z M321.889,314.363
			c-12.01,0.001-23.338,4.702-31.896,13.236c-16.595,16.545-43.39,16.548-59.986,0c-8.559-8.535-19.887-13.235-31.896-13.235
			c-23.267,0-42.473-18.803-42.476-42.475c0-12.01-4.701-23.338-13.235-31.896c-16.544-16.592-16.55-43.39,0-59.987
			c8.534-8.558,13.235-19.886,13.236-31.896c0.002-23.479,18.991-42.471,42.473-42.474c12.01,0,23.338-4.701,31.897-13.236
			c16.592-16.544,43.391-16.548,59.988,0.001c8.558,8.534,19.885,13.234,31.895,13.235c23.479,0.002,42.472,18.992,42.474,42.474
			c0.001,12.011,4.702,23.338,13.236,31.896c16.545,16.593,16.548,43.39-0.001,59.985c-8.535,8.559-13.235,19.887-13.235,31.895
			C364.359,295.535,345.18,314.363,321.889,314.363z"></path>
		<path d="M277.307,186.18l-7.796-23.992c-1.339-4.12-5.179-6.91-9.511-6.91c-4.333,0-8.172,2.79-9.511,6.91l-7.795,23.992h-25.227
			c-4.332,0-8.172,2.79-9.511,6.91c-1.338,4.12,0.128,8.634,3.633,11.181l20.409,14.828l-7.795,23.991
			c-1.338,4.121,0.128,8.634,3.633,11.181c3.505,2.547,8.25,2.546,11.756,0L260,239.443l20.408,14.828
			c3.504,2.545,8.25,2.547,11.756,0c3.505-2.546,4.972-7.06,3.633-11.18l-7.795-23.992l20.408-14.829
			c3.505-2.546,4.972-7.06,3.633-11.18s-5.179-6.91-9.511-6.91H277.307z M270.368,207.189c-3.505,2.546-4.972,7.06-3.633,11.18
			l0.53,1.631l-1.388-1.008c-3.505-2.546-8.25-2.547-11.756,0L252.734,220l0.53-1.631c1.338-4.121-0.128-8.634-3.633-11.181
			l-1.388-1.008h1.716c4.332,0,8.171-2.79,9.51-6.91l0.53-1.632l0.53,1.632c1.339,4.12,5.179,6.91,9.511,6.91h1.715L270.368,207.189
			z"></path>
		<circle cx="460" cy="140" r="10"></circle>
		<circle cx="450" cy="270" r="10"></circle>
		<circle cx="420" cy="450" r="10"></circle>
		<circle cx="110" cy="440" r="10"></circle>
		<circle cx="80" cy="260" r="10"></circle>
		<circle cx="170" cy="50" r="10"></circle>
		<circle cx="370" cy="70" r="10"></circle>
		<circle cx="70" cy="140" r="10"></circle>
		<path d="M80,320c-22.056,0-40,17.944-40,40s17.944,40,40,40s40-17.944,40-40S102.056,320,80,320z M80,380
			c-11.028,0-20-8.972-20-20s8.972-20,20-20s20,8.972,20,20S91.028,380,80,380z"></path>
		<path d="M420,330c-16.542,0-30,13.458-30,30s13.458,30,30,30s30-13.458,30-30S436.542,330,420,330z M420,370
			c-5.514,0-10-4.486-10-10s4.486-10,10-10s10,4.486,10,10S425.514,370,420,370z"></path>
		<path d="M115,100c13.785,0,25-11.215,25-25s-11.215-25-25-25S90,61.215,90,75S101.215,100,115,100z M115,70c2.757,0,5,2.243,5,5
			s-2.243,5-5,5s-5-2.243-5-5S112.243,70,115,70z"></path>
	</g>
</g>
<g id="Layer_1">
</g>
</svg>