<?xml version="1.0" encoding="UTF-8"?>
<svg version="1.1" viewBox="0 0 2048 2048" width="1280" height="1280" xmlns="http://www.w3.org/2000/svg">
<path transform="translate(273,1139)" d="m0 0h21l17 4 14 7 12 9 10 10 9 14 6 15 11 43v2l27-8 230-62 48-12 27-5 21-3 11-1h41l24 3 25 6 19 7 19 9 18 11 25 17 16 11 23 16 35 24 23 16 26 17 25 16 21 13 15 9 26 15 24 13 21 11 16 8 11 7 13 11 9 9 10 13 10 18 6 15 5 20 1 8v24l-3 17-5 16-8 16-10 16-9 11 3-1 25-3 27-6 58-16 136-37 140-38 41-11 32-7 25-4 18-2 16-1h20l26 2 25 5 18 6 19 9 15 10 14 12 9 10 9 13 8 15 5 14 4 19 1 8v21l-4 24-5 16-5 12-9 17-12 16-14 14-14 10-16 8-30 10-104 31-161 48-61 18-26 8-87 26-54 16-63 19-98 29-32 8-29 4h-42l-27-4-24-6-20-7-20-9-23-12-17-10-21-12-24-14-28-16-24-14-28-16-24-14-52-30-24-14-21-12-24-14-28-16-26-15-24-14-11-6-35 9-22 6h-2l4 13 11 44 1 6v22l-4 16-8 16-9 12-11 10-14 8-13 5-81 21-28 7-15 2-15-1-16-4-16-8-14-12-10-12-8-16-7-24-11-44-11-42-24-93-42-162-24-93-21-81-4-17-1-8v-10l3-16 6-16 7-11 10-12 15-11 16-7 45-12 51-13 17-4zm5 65-55 14-46 12-9 4-4 6-1 3v10l18 69 14 55 24 93 16 61 14 55 22 84 14 55 14 53 4 15 4 6 6 4h12l86-22 20-6 5-4 3-6v-9l-14-55-21-81-23-89-21-81-16-61-14-55-21-81-10-38-4-6-5-4-2-1zm464 13-27 3-30 6-54 14-70 19-156 42-16 5 16 62 21 82 19 73 23 89 3 11 3 1 67-18 5-1h12l10 4 25 14 24 14 28 16 24 14 28 16 17 10 26 15 21 12 52 30 24 14 78 45 24 14 23 13 17 9 20 8 23 6 21 3h33l20-3 24-6 60-18 127-38 67-20 47-14 315-94 55-16 14-6 9-7 7-7 8-13 6-16 3-17-1-18-5-15-7-11-9-9-11-7-11-5-13-4-18-3h-44l-24 3-23 4-40 10-69 19-136 37-70 19-74 20-29 7-27 4h-41l-26-4-24-6-18-6-24-10-35-16-33-17-46-26-25-15-24-14-22-13-27-16-23-14-7-7-5-10-1-4v-9l4-11 4-6 7-6 9-4h15l10 4 17 10 28 17 16 9 28 17 16 9 22 13 25 14 10 6 16 8 15 8 11 4 18 3h9l12-2 12-5 9-7 9-10 5-9 3-6 3-12v-16l-3-13-8-16-11-12-11-8-34-17-23-13-20-11-27-16-24-15-17-11-44-29-11-8-19-13-16-11-23-16-19-13-27-18-12-7-20-8-20-5-17-2z"/>
<path transform="translate(1335,153)" d="m0 0h140l18 1 9 3 10 9 5 9 8 20 13 34 10 25 30 9 36 14 27 12 16 9 10 5 6-1 72-32 10-3h11l12 5 10 9 107 107 5 7 3 8v12l-4 12-18 40-14 32 1 6 12 23 11 23 10 25 12 36 3 11 9 3 40 15 28 11 11 6 7 7 4 8 1 4v170l-4 10-7 8-14 7-44 17-29 11h-2l-2 9-12 36-10 25-13 28-12 22 1 6 9 21 16 36 9 21 1 4v12l-4 10-8 10h-2l-2 4-101 101-11 8-10 3h-10l-10-3-29-13-34-15-11-5-5 1-16 8-15 8-25 11-35 13-26 8h-2l-3 11-11 28-15 39-7 12-7 6-10 4-6 1h-160l-9-2-10-6-7-9-7-16-15-39-10-27v-2l-9-2-25-8-29-11-29-13-27-14-5-1-63 28-16 7-5 1h-12l-10-4-10-8-106-106-7-10-3-8v-12l6-17 12-26 11-25 7-16-1-5-17-33-12-27-11-30-8-27-8-4-52-20-20-8-10-6-6-7-4-9-1-5v-163l4-13 8-9 16-8 29-11 39-15 4-2 4-11 12-36 10-24 12-26 12-22-1-6-18-40-16-37-1-4v-12l4-11 8-10 8-7 4-5 8-7 55-55 5-6 7-6 5-6h2l2-4h2l2-4h2l2-4 10-8 11-4h10l13 4 42 19 27 12 7 1 22-12 25-12 25-10 20-7 26-8 5-10 16-42 6-15 5-13 6-10 7-6 9-4zm19 65-3 5-8 20-16 42-8 16-4 5-10 5-44 13-24 9-23 10-26 13-23 13-8 3-4 1h-7l-12-4-36-16-32-14-5 1-5 5-9 10-62 62 2 5 18 41 13 30 1 4v13l-4 10-11 19-15 30-11 26-8 22-12 41-5 9-5 5-14 7-67 26-1 1-1 39v72l9 4 44 17 20 8 11 6 6 7 5 13 8 28 9 26 10 24 14 29 13 23 4 8 1 4v13l-6 16-11 24-16 36-1 4 73 73h2l2 4 7-1 42-19 28-12 4-1h13l11 4 21 12 23 12 25 11 24 9 45 13 10 6 5 6 7 14 11 30 11 28 4 8 1 1h108l3-2 15-39 13-33 5-9 4-4v-2l5-2 14-5 28-8 23-8 24-10 25-12 22-12 14-7 11-2 15 4 35 16 32 14 6-1 7-8 15-15 6-5 6-7 6-5 6-7 6-5 6-7 6-5 4-4v-2h2v-2l4-2 1-5-16-36-15-34-3-10v-8l4-11 14-25 8-16 9-19 11-28 10-32 6-21 7-11 10-6 14-6 61-23v-112l-12-5-20-8-39-15-11-6-8-9-4-10-10-35-9-25-9-21-12-25-15-27-4-9-1-10 3-11 11-25 18-41 2-4-1-5-76-76-6 1-31 14-27 12-16 6-9 1-9-2-14-7-17-10-24-12-29-12-36-12-25-7-9-6-6-7-7-15-19-50-5-13-5-2z"/>
<path transform="translate(378,120)" d="m0 0h109l10 3 8 6 6 7 7 16 13 34 29 10 27 12 11 6h6l14-7 27-12 7-2h13l10 4 9 7 13 13v2l4 2v2l4 2 5 6 6 5 6 7 6 5 6 7 6 5 7 8 8 8 6 12 1 4v7l-4 13-18 41 2 6 8 16 10 24 8 23v2l10 3 33 13 11 6 8 9 4 9 1 10v96l-2 12-6 11-7 6-11 5-39 15-4 8-7 20-9 21-8 16-2 6 18 41 4 13-1 11-4 9-7 9-68 68-8 6-13 4-10-1-17-7-31-14h-5l-19 10-27 11-21 7-11 30-8 19-7 9-7 5-10 3h-112l-10-4-8-7-6-10-12-31-5-13-6-3-18-6-24-10-20-10-6 1-27 12-17 7-7 2-10-1-9-4-9-7-68-68-7-10-3-8v-10l5-15 10-22 7-16-9-19-10-23-9-27v-2l-5-1-41-16-10-6-6-7-4-9-1-8v-102l2-10 6-10 7-6 18-8 32-12 3-5 9-26 11-25 7-14-13-30-8-19-1-4v-10l4-11 7-9 71-71 14-7h14l16 6 19 9 14 6h5l19-10 24-10 18-6 6-1 3-9 11-29 6-14 7-8 9-5zm27 65-13 34-7 14-5 5-8 5-30 9-25 10-16 8-23 12-4 1h-13l-12-4-29-13-6-2-26 26v2l-4 2-7 7-1 4 14 32 5 14v10l-4 11-14 26-9 21-6 17-7 23-6 11-9 6-21 9-22 8-1 10v44l1 3 29 11 16 7 8 7 6 12 8 27 10 25 8 16 11 21 2 7v9l-5 14-7 16-7 15 1 5 37 37 6-2 31-14 9-3h13l11 4 24 13 23 10 24 8 17 5 9 6 5 6 5 10 10 26 4 10h55l5-10 9-24 7-14 5-6 13-6 27-8 23-9 16-8 20-11 6-2h14l14 5 29 13 4 1 1-3 4-2 5-6 4-3v-2l4-2 8-8v-2l4-2 7-7 1-3-9-21-8-18-2-8v-9l3-10 13-24 8-17 9-25 6-20 4-10 4-5 10-6 14-6 21-8 5-2 1-1v-55l-11-5-26-10-10-5-7-7-4-8-7-22-7-20-8-18-8-16-8-15-2-7v-10l4-12 15-34-2-5-6-5-7-8-22-22-7 1-34 15-7 2h-13l-11-4-22-12-17-8-25-9-23-7-8-5-4-2-2-4-7-15-11-29-2-3z"/>
<path transform="translate(1385,432)" d="m0 0h46l28 3 29 6 24 7 19 7 19 8 19 10 20 12 18 13 16 13 12 11 5 4 7 8 9 9 9 11 13 17 13 20 9 16 8 16 10 23 9 28 6 26 3 19 2 20v46l-4 33-6 28-6 20-8 21-11 24-11 20-9 14-10 14-10 13-9 10-1 2h-2l-2 4-16 16-8 7-16 13-18 13-20 12-27 14-28 11-27 8-31 6-25 3-30 1-32-2-31-5-30-8-28-10-35-17-24-15-16-12-11-9-20-18-9-9-7-8-11-13-14-19-12-19-9-16-11-24-9-25-7-24-5-26-3-24-1-15v-25l2-25 4-26 8-32 8-23 11-25 11-21 12-19 10-14 11-14 8-9 1-2h2l2-4 18-18 11-9 16-13 21-14 17-10 15-8 29-12 25-8 26-6 27-4zm3 65-25 3-23 5-33 11-21 10-19 11-17 12-10 8-20 18-7 7-5 6v2h-2l-10 13-12 17-10 18-8 16-10 26-5 18-4 18-3 22v47l4 28 6 25 8 22 8 18 10 19 12 18 10 13 11 13 20 20 11 9 18 13 15 9 23 12 23 9 25 7 22 4 17 2h42l24-3 23-5 17-5 25-10 20-10 21-13 13-10 13-11 13-12 12-13 9-11 10-14 9-15 9-16 9-21 8-25 4-16 4-25 1-12v-35l-3-26-6-27-9-27-8-18-11-21-8-12-10-14-11-13-12-13-14-13-14-11-24-16-27-14-26-10-22-6-21-4-21-2z"/>
<path transform="translate(419,315)" d="m0 0h27l25 3 24 6 21 8 23 12 15 10 14 11 14 13v2h2l9 11 13 17 12 21 9 21 5 15 5 22 2 13 1 24-1 19-4 24-6 21-7 18-9 17-5 9-12 17-12 14-11 11h-2v2l-14 11-13 9-14 8-16 8-19 7-25 6-11 2-12 1h-30l-23-3-24-6-25-10-17-9-15-10-13-10-16-15-12-13-13-18-12-21-10-24-6-21-4-23-1-13v-20l2-20 4-21 5-16 6-16 10-20 9-14 12-16 12-13 10-10 10-8 14-10 19-11 17-8 21-7 23-5zm2 65-24 4-18 6-16 8-11 7-14 11-13 13-13 18-6 11-8 19-5 21-2 17v15l2 16 4 17 6 16 7 14 8 12 9 11 5 6 8 7 13 10 19 11 18 7 15 4 16 2h25l18-3 20-6 19-9 12-8 10-8 10-9 10-11 10-15 8-15 8-24 3-19v-29l-3-18-5-16-5-12-9-17-10-13-9-10-12-11-13-9-19-10-21-7-16-3-8-1z"/>
<path transform="translate(243,1261)" d="m0 0h8l10 3 9 6 6 7 4 9 1 6v8l-3 9-5 8-8 7-9 4-6 1h-8l-10-3-8-6-6-7-4-9-1-4v-11l4-11 9-10 7-4z"/>
</svg>
