<?xml version="1.0" encoding="UTF-8"?>
<!DOCTYPE svg PUBLIC "-//W3C//DTD SVG 1.1//EN" "http://www.w3.org/Graphics/SVG/1.1/DTD/svg11.dtd">
<svg xmlns="http://www.w3.org/2000/svg" version="1.1" width="512px" height="512px" style="shape-rendering:geometricPrecision; text-rendering:geometricPrecision; image-rendering:optimizeQuality; fill-rule:evenodd; clip-rule:evenodd" xmlns:xlink="http://www.w3.org/1999/xlink">
<g><path style="opacity:0.936" fill="#000000" d="M 246.5,-0.5 C 259.833,-0.5 273.167,-0.5 286.5,-0.5C 293.329,2.51424 295.162,7.51424 292,14.5C 291.097,15.7014 289.931,16.5348 288.5,17C 243.408,16.6798 199.074,22.3464 155.5,34C 110.764,47.0695 81.5971,75.9029 68,120.5C 63.5617,141.815 56.7284,162.315 47.5,182C 50.607,187.442 54.7737,191.942 60,195.5C 66.2553,202.853 68.2553,211.187 66,220.5C 59.8579,233.451 53.1913,246.118 46,258.5C 36.5,272.167 27,285.833 17.5,299.5C 19.0243,301.858 21.0243,303.691 23.5,305C 33.075,308.586 40.9084,314.419 47,322.5C 50.1735,330.152 50.1735,337.819 47,345.5C 45.0303,349.273 43.197,353.106 41.5,357C 44.4366,360.138 47.77,362.805 51.5,365C 54.0975,368.088 54.9308,371.588 54,375.5C 52.4445,377.443 51.2779,379.61 50.5,382C 57.3635,385.865 62.5302,391.365 66,398.5C 68.116,408.434 67.616,418.268 64.5,428C 65.9989,448.575 76.3322,455.242 95.5,448C 132.551,437.205 169.218,425.205 205.5,412C 215.791,408.278 224.625,402.445 232,394.5C 234.629,389.463 236.296,384.129 237,378.5C 242.037,373.288 247.037,373.288 252,378.5C 254.765,388.783 252.765,398.116 246,406.5C 237.148,416.015 226.648,423.182 214.5,428C 203.042,431.874 191.708,436.041 180.5,440.5C 193.742,455.938 203.409,473.438 209.5,493C 273.5,493.667 337.5,493.667 401.5,493C 388.805,472.589 380.638,450.422 377,426.5C 366.362,381.211 372.695,338.544 396,298.5C 407.246,283.008 418.246,267.342 429,251.5C 434.648,240.221 439.315,228.554 443,216.5C 447.052,214.058 451.219,213.891 455.5,216C 457.742,217.986 458.742,220.486 458.5,223.5C 455.506,238.488 450.006,252.488 442,265.5C 432,279.5 422,293.5 412,307.5C 395.095,334.788 388.095,364.454 391,396.5C 393.344,420.209 398.677,443.209 407,465.5C 412.746,476.66 418.746,487.66 425,498.5C 426.429,504.3 424.596,508.633 419.5,511.5C 345.833,511.5 272.167,511.5 198.5,511.5C 196.525,510.354 195.025,508.687 194,506.5C 189.349,489.191 182.016,473.191 172,458.5C 168.466,454.631 164.633,451.131 160.5,448C 142.588,453.301 124.588,458.634 106.5,464C 98.1133,466.389 89.6133,468.222 81,469.5C 59.697,466.524 48.3637,454.191 47,432.5C 47.3418,423.459 48.0084,414.459 49,405.5C 45.7196,401.265 41.5529,398.098 36.5,396C 32.3237,393.306 30.3237,389.473 30.5,384.5C 31.1841,380.793 31.6841,377.126 32,373.5C 28,370.833 24.6667,367.5 22,363.5C 21.3333,360.833 21.3333,358.167 22,355.5C 24.19,349.633 26.8567,343.966 30,338.5C 30.6667,335.833 30.6667,333.167 30,330.5C 23.5835,325.706 16.7501,321.539 9.5,318C 5.16207,314.511 1.82874,310.344 -0.5,305.5C -0.5,301.5 -0.5,297.5 -0.5,293.5C 10.8037,277.345 21.9703,261.011 33,244.5C 38.6424,234.047 44.1424,223.547 49.5,213C 45.0334,207.532 40.2,202.365 35,197.5C 29.5829,190.156 28.2496,182.156 31,173.5C 39.1938,156.585 45.1938,138.919 49,120.5C 58.6422,85.674 77.8088,57.5074 106.5,36C 129.997,22.0552 155.33,13.0552 182.5,9C 203.848,4.92728 225.181,1.76062 246.5,-0.5 Z"/></g>
<g><path style="opacity:0.936" fill="#000000" d="M 386.5,-0.5 C 395.833,-0.5 405.167,-0.5 414.5,-0.5C 418.093,1.25648 420.926,3.92315 423,7.5C 424.839,15.3644 426.672,23.1977 428.5,31C 431.5,32.1667 434.5,33.3333 437.5,34.5C 443.998,30.083 450.665,25.9164 457.5,22C 462.44,20.9595 467.106,21.6261 471.5,24C 478.074,29.9037 483.908,36.4037 489,43.5C 489.791,47.9255 489.457,52.2589 488,56.5C 484.167,62.1667 480.333,67.8333 476.5,73.5C 477.667,76.5 478.833,79.5 480,82.5C 487.802,84.3282 495.636,86.1615 503.5,88C 507.077,90.0738 509.744,92.9072 511.5,96.5C 511.5,105.833 511.5,115.167 511.5,124.5C 509.685,128.479 506.685,131.312 502.5,133C 494.939,134.711 487.439,136.544 480,138.5C 478.971,141.39 477.805,144.224 476.5,147C 480.203,152.902 484.036,158.736 488,164.5C 490.248,170.345 489.915,176.012 487,181.5C 481.833,186.667 476.667,191.833 471.5,197C 467.07,199.27 462.403,199.937 457.5,199C 452.002,196.085 446.668,192.919 441.5,189.5C 439.644,192.19 437.311,194.356 434.5,196C 424.267,198.378 414.101,200.878 404,203.5C 402.845,207.975 401.012,212.142 398.5,216C 404.374,224.245 409.874,232.745 415,241.5C 416.091,247.097 415.424,252.43 413,257.5C 406.833,263.667 400.667,269.833 394.5,276C 386.655,280.788 378.988,280.454 371.5,275C 365.323,270.818 359.156,266.652 353,262.5C 348.202,264.233 343.535,266.233 339,268.5C 337.344,279.456 334.677,290.123 331,300.5C 327.984,304.092 324.151,306.258 319.5,307C 311.167,307.667 302.833,307.667 294.5,307C 286.027,305.194 280.86,300.027 279,291.5C 277.305,283.524 275.805,275.524 274.5,267.5C 269.843,266.336 265.343,264.669 261,262.5C 252.596,267.286 244.43,272.452 236.5,278C 230.206,280.174 224.206,279.508 218.5,276C 212.667,270.167 206.833,264.333 201,258.5C 196.333,251.167 196.333,243.833 201,236.5C 205.696,229.97 210.196,223.303 214.5,216.5C 212.255,212.017 210.589,207.35 209.5,202.5C 200.167,200.734 190.834,198.9 181.5,197C 175.443,194.381 171.61,189.881 170,183.5C 169.333,174.5 169.333,165.5 170,156.5C 171.282,150.887 174.449,146.72 179.5,144C 189.163,141.768 198.83,139.601 208.5,137.5C 210.222,133.056 212.222,128.722 214.5,124.5C 208.485,115.801 202.985,106.801 198,97.5C 196.663,91.1867 197.996,85.52 202,80.5C 208.283,73.211 215.449,67.0443 223.5,62C 227.5,61.3333 231.5,61.3333 235.5,62C 243.872,67.1817 252.205,72.3483 260.5,77.5C 264.906,76.0311 269.239,74.3645 273.5,72.5C 275.982,63.2608 278.148,53.9275 280,44.5C 282.167,39.6667 285.667,36.1667 290.5,34C 300.5,33.6667 310.5,33.3333 320.5,33C 323.5,30 326.5,27 329.5,24C 334.988,21.0855 340.655,20.7521 346.5,23C 352.264,26.9637 358.098,30.797 364,34.5C 366.776,33.1952 369.61,32.0285 372.5,31C 374.456,23.561 376.289,16.061 378,8.5C 379.688,4.31481 382.521,1.31481 386.5,-0.5 Z M 394.5,17.5 C 398.767,17.203 402.934,17.5363 407,18.5C 408.539,26.5277 410.206,34.5277 412,42.5C 413.167,43.6667 414.333,44.8333 415.5,46C 423.125,48.6505 430.625,51.4839 438,54.5C 446.35,50.74 454.183,46.0733 461.5,40.5C 464.833,43.1667 467.833,46.1667 470.5,49.5C 465.803,56.3657 461.303,63.3657 457,70.5C 456.416,73.2567 456.75,75.9234 458,78.5C 461.15,83.8041 463.483,89.4708 465,95.5C 465.833,96.3333 466.667,97.1667 467.5,98C 475.659,100.633 483.992,102.633 492.5,104C 493.833,108.333 493.833,112.667 492.5,117C 484.472,118.539 476.472,120.206 468.5,122C 467.333,123.167 466.167,124.333 465,125.5C 462.349,133.125 459.516,140.625 456.5,148C 460.26,156.35 464.927,164.183 470.5,171.5C 467.85,174.651 465.016,177.651 462,180.5C 456,176.5 450,172.5 444,168.5C 444.772,160.558 442.939,153.391 438.5,147C 455.777,126.746 457.944,104.913 445,81.5C 434.254,66.8757 419.754,59.209 401.5,58.5C 392.768,59.6838 384.101,61.1838 375.5,63C 367.725,67.7764 360.225,72.943 353,78.5C 348.386,75.9681 343.719,73.6348 339,71.5C 337.415,62.9078 335.582,54.4078 333.5,46C 335.167,44.3333 336.833,42.6667 338.5,41C 346.337,45.7766 354.504,50.2766 363,54.5C 370.375,51.4839 377.875,48.6505 385.5,46C 386.667,44.8333 387.833,43.6667 389,42.5C 390.777,34.1126 392.61,25.7793 394.5,17.5 Z M 296.5,51.5 C 303.167,51.5 309.833,51.5 316.5,51.5C 318.472,62.1934 320.639,72.8601 323,83.5C 323.833,85.6667 325.333,87.1667 327.5,88C 335.224,90.0199 342.558,93.0199 349.5,97C 352.167,97.6667 354.833,97.6667 357.5,97C 366.419,91.2909 375.252,85.4575 384,79.5C 388.5,84 393,88.5 397.5,93C 391.542,101.748 385.709,110.581 380,119.5C 379.333,122.167 379.333,124.833 380,127.5C 384.114,135.176 387.447,143.176 390,151.5C 390.903,152.701 392.069,153.535 393.5,154C 404.142,156.362 414.809,158.528 425.5,160.5C 425.666,166.842 425.5,173.175 425,179.5C 414.152,181.87 403.319,184.37 392.5,187C 391.333,188.167 390.167,189.333 389,190.5C 386.98,198.224 383.98,205.558 380,212.5C 379.333,215.5 379.333,218.5 380,221.5C 385.833,230 391.667,238.5 397.5,247C 392.985,251.682 388.319,256.182 383.5,260.5C 375.833,255.333 368.167,250.167 360.5,245C 358.361,243.596 356.028,242.763 353.5,242.5C 344.709,246.487 335.709,249.987 326.5,253C 325.333,254.167 324.167,255.333 323,256.5C 320.51,267.448 318.344,278.448 316.5,289.5C 310.158,289.666 303.825,289.5 297.5,289C 295.175,277.373 292.341,265.873 289,254.5C 280.266,251.252 271.766,247.419 263.5,243C 261.167,242.333 258.833,242.333 256.5,243C 248.5,248.333 240.5,253.667 232.5,259C 231.241,259.982 229.908,260.315 228.5,260C 224.119,255.955 220.119,251.622 216.5,247C 222.318,237.844 228.151,228.677 234,219.5C 234.584,216.743 234.25,214.077 233,211.5C 229.161,203.304 225.327,195.138 221.5,187C 210.302,184.495 199.136,181.995 188,179.5C 187.5,173.175 187.334,166.842 187.5,160.5C 198.193,158.528 208.86,156.361 219.5,154C 221.286,153.215 222.786,152.049 224,150.5C 226.958,141.257 230.458,132.257 234.5,123.5C 229.708,113.256 223.874,103.59 217,94.5C 216.333,93.5 216.333,92.5 217,91.5C 221.015,87.3179 225.182,83.3179 229.5,79.5C 237.167,84.6667 244.833,89.8333 252.5,95C 254.768,96.5519 257.268,97.3852 260,97.5C 268.978,93.6168 278.144,90.1168 287.5,87C 289.487,85.6811 290.654,83.8477 291,81.5C 293.158,71.5457 294.991,61.5457 296.5,51.5 Z M 409.5,78.5 C 425.706,82.8576 434.373,93.5243 435.5,110.5C 434.706,124.103 428.373,134.103 416.5,140.5C 412.887,139.477 409.221,138.644 405.5,138C 402.981,133.456 400.648,128.789 398.5,124C 404.394,115.769 409.894,107.269 415,98.5C 416.868,90.7132 415.035,84.0465 409.5,78.5 Z M 297.5,128.5 C 323.213,126.065 340.047,137.065 348,161.5C 350.482,189.007 338.315,205.84 311.5,212C 288.532,212.766 273.366,202.266 266,180.5C 262.453,154.585 272.953,137.251 297.5,128.5 Z"/></g>
<g><path style="opacity:0.926" fill="#000000" d="M 177.5,44.5 C 188.221,43.7098 192.054,48.3765 189,58.5C 187.786,60.0488 186.286,61.2155 184.5,62C 165.749,65.1366 148.416,71.8033 132.5,82C 112.786,100.247 100.452,122.747 95.5,149.5C 89.3828,149.813 83.3828,148.813 77.5,146.5C 82.5277,120.115 93.6943,96.7818 111,76.5C 120.477,67.37 131.31,60.2034 143.5,55C 154.759,50.8585 166.093,47.3585 177.5,44.5 Z"/></g>
<g><path style="opacity:0.935" fill="#000000" d="M 304.5,109.5 C 335.119,110.55 355.285,125.55 365,154.5C 371.108,187.45 359.275,211.283 329.5,226C 301.872,235.385 278.372,229.218 259,207.5C 242.055,181.913 242.388,156.58 260,131.5C 272.077,118.378 286.91,111.045 304.5,109.5 Z M 297.5,128.5 C 272.953,137.251 262.453,154.585 266,180.5C 273.366,202.266 288.532,212.766 311.5,212C 338.315,205.84 350.482,189.007 348,161.5C 340.047,137.065 323.213,126.065 297.5,128.5 Z"/></g>
<g><path style="opacity:0.871" fill="#000000" d="M 302.5,161.5 C 312.659,160.158 316.826,164.491 315,174.5C 309.999,180.587 304.666,180.92 299,175.5C 296.436,169.799 297.603,165.132 302.5,161.5 Z"/></g>
<g><path style="opacity:0.871" fill="#000000" d="M 73.5,169.5 C 81.9888,169.154 85.8221,173.154 85,181.5C 82.5493,187.089 78.3826,188.922 72.5,187C 67.8451,184.103 66.3451,179.937 68,174.5C 69.7297,172.598 71.563,170.931 73.5,169.5 Z"/></g>
</svg>
