<?xml version="1.0" encoding="UTF-8"?>
<!DOCTYPE svg PUBLIC "-//W3C//DTD SVG 1.1//EN" "http://www.w3.org/Graphics/SVG/1.1/DTD/svg11.dtd">
<svg xmlns="http://www.w3.org/2000/svg" version="1.1" width="512px" height="512px" style="shape-rendering:geometricPrecision; text-rendering:geometricPrecision; image-rendering:optimizeQuality; fill-rule:evenodd; clip-rule:evenodd" xmlns:xlink="http://www.w3.org/1999/xlink">
<g><path style="opacity:0.997" fill="#000000" d="M 511.5,35.5 C 511.5,182.167 511.5,328.833 511.5,475.5C 506.348,493.484 494.682,504.984 476.5,510C 329.167,510.667 181.833,510.667 34.5,510C 16.3096,504.975 4.64294,493.475 -0.5,475.5C -0.5,328.833 -0.5,182.167 -0.5,35.5C 4.65165,17.5157 16.3183,6.01571 34.5,1C 181.833,0.333333 329.167,0.333333 476.5,1C 494.682,6.01571 506.348,17.5157 511.5,35.5 Z M 44.5,30.5 C 186.868,30.0079 329.202,30.5079 471.5,32C 476.996,34.8135 480.162,39.3135 481,45.5C 481.5,70.4978 481.667,95.4978 481.5,120.5C 330.833,120.5 180.167,120.5 29.5,120.5C 29.3334,95.4978 29.5,70.4978 30,45.5C 31.0117,36.6566 35.8451,31.6566 44.5,30.5 Z M 29.5,150.5 C 180.167,150.5 330.833,150.5 481.5,150.5C 481.667,255.501 481.5,360.501 481,465.5C 480.167,474.333 475.333,479.167 466.5,480C 325.833,480.667 185.167,480.667 44.5,480C 35.6667,479.167 30.8333,474.333 30,465.5C 29.5,360.501 29.3333,255.501 29.5,150.5 Z"/></g>
<g><path style="opacity:0.931" fill="#000000" d="M 69.5,60.5 C 85.6538,58.4866 92.4872,65.4866 90,81.5C 85.6524,89.9149 78.8191,92.7483 69.5,90C 61.0851,85.6524 58.2517,78.8191 61,69.5C 62.6878,65.3148 65.5212,62.3148 69.5,60.5 Z"/></g>
<g><path style="opacity:0.931" fill="#000000" d="M 129.5,60.5 C 145.654,58.4866 152.487,65.4866 150,81.5C 145.652,89.9149 138.819,92.7483 129.5,90C 121.085,85.6524 118.252,78.8191 121,69.5C 122.688,65.3148 125.521,62.3148 129.5,60.5 Z"/></g>
<g><path style="opacity:0.931" fill="#000000" d="M 189.5,60.5 C 205.654,58.4866 212.487,65.4866 210,81.5C 205.652,89.9149 198.819,92.7483 189.5,90C 181.085,85.6524 178.252,78.8191 181,69.5C 182.688,65.3148 185.521,62.3148 189.5,60.5 Z"/></g>
<g><path style="opacity:0.985" fill="#000000" d="M 339.5,60.5 C 373.502,60.3333 407.502,60.5 441.5,61C 449.915,65.3476 452.748,72.1809 450,81.5C 448.5,85.6667 445.667,88.5 441.5,90C 407.5,90.6667 373.5,90.6667 339.5,90C 330.525,84.8483 328.025,77.3483 332,67.5C 334.015,64.5883 336.515,62.255 339.5,60.5 Z"/></g>
<g><path style="opacity:0.961" fill="#000000" d="M 294.5,195.5 C 310.654,193.487 317.487,200.487 315,216.5C 284.22,288.554 253.053,360.387 221.5,432C 214.167,436.667 206.833,436.667 199.5,432C 195.681,426.795 194.514,420.962 196,414.5C 226.742,342.686 257.742,271.02 289,199.5C 291.015,198.303 292.849,196.97 294.5,195.5 Z"/></g>
<g><path style="opacity:0.958" fill="#000000" d="M 159.5,240.5 C 176.783,239.076 183.283,246.742 179,263.5C 178.044,264.579 177.211,265.745 176.5,267C 156.278,282.938 136.278,299.104 116.5,315.5C 136.278,331.896 156.278,348.062 176.5,364C 180.766,369.995 181.599,376.495 179,383.5C 174.174,390.144 167.674,392.311 159.5,390C 132.546,369.381 105.879,348.381 79.5,327C 74.1667,319.333 74.1667,311.667 79.5,304C 106.066,282.589 132.733,261.422 159.5,240.5 Z"/></g>
<g><path style="opacity:0.958" fill="#000000" d="M 339.5,240.5 C 345.675,239.643 351.342,240.81 356.5,244C 381.211,264.38 406.211,284.38 431.5,304C 436.833,311.667 436.833,319.333 431.5,327C 405.121,348.381 378.454,369.381 351.5,390C 334.199,391.908 327.699,384.408 332,367.5C 332.956,366.421 333.789,365.255 334.5,364C 354.722,348.062 374.722,331.896 394.5,315.5C 374.503,299.007 354.336,282.674 334,266.5C 329.333,259.167 329.333,251.833 334,244.5C 336.015,243.303 337.849,241.97 339.5,240.5 Z"/></g>
</svg>
